<?xml version="1.0" encoding="utf-8"?>
<!-- Generator: Adobe Illustrator 15.0.0, SVG Export Plug-In . SVG Version: 6.00 Build 0)  -->
<!DOCTYPE svg PUBLIC "-//W3C//DTD SVG 1.1//EN" "http://www.w3.org/Graphics/SVG/1.1/DTD/svg11.dtd">
<svg version="1.1" id="Layer_1" xmlns="http://www.w3.org/2000/svg" xmlns:xlink="http://www.w3.org/1999/xlink" x="0px" y="0px"
	 width="215px" height="72px" viewBox="0 0 215 72" enable-background="new 0 0 215 72" xml:space="preserve">
<g>
	<path fill="#CC3300" d="M158.26,25.659c3.452-4.214,7.52-6.322,12.209-6.322c2.713,0,4.935,0.528,6.66,1.585
		c1.727,1.055,3.344,2.857,4.856,5.402c3.521-4.659,7.732-6.988,12.632-6.988c4.164,0,7.409,1.331,9.736,3.99
		c2.326,2.659,3.491,6.374,3.491,11.141v14.854c0,2.367,0.466,4.119,1.401,5.26c0.936,1.139,2.479,1.813,4.632,2.026
		c0.749,0.065,1.122,0.404,1.122,1.012c0,0.547-0.373,0.818-1.121,0.818c-0.343,0-0.823-0.038-1.445-0.123
		c-0.995-0.141-2.55-0.207-4.667-0.207c-4.139,0-6.72,0.062-7.746,0.189c-0.685,0.094-1.15,0.141-1.399,0.141
		c-0.81,0-1.227-0.312-1.261-0.941c-0.029-0.359,0.235-0.657,0.798-0.889c1.368-0.519,2.264-1.027,2.685-1.518
		c0.422-0.489,0.633-1.286,0.633-2.389l0.046-1.565V36.101c0-4.137-0.875-7.356-2.627-9.654c-1.754-2.299-4.195-3.45-7.331-3.45
		c-2.071,0-4.052,0.644-5.94,1.928c-1.887,1.287-2.83,2.642-2.83,4.062c0,0.31,0.046,0.695,0.142,1.157
		c0.188,1.113,0.284,2.176,0.284,3.192v16.702c0,2.346,0.39,3.978,1.175,4.902c0.785,0.927,2.271,1.483,4.457,1.667
		c1.016,0.095,1.522,0.431,1.522,1.006c0,0.549-0.45,0.824-1.349,0.824c-0.311,0-0.807-0.026-1.488-0.082
		c-1.706-0.166-3.16-0.248-4.367-0.248c-4.249,0-6.929,0.066-8.043,0.207c-0.59,0.085-1.07,0.123-1.442,0.123
		c-0.743,0-1.113-0.275-1.113-0.832c0-0.357,0.271-0.634,0.82-0.83c1.615-0.584,2.574-1.155,2.88-1.721
		c0.306-0.567,0.459-2.061,0.459-4.479V33.539c0-3.213-0.835-5.745-2.505-7.596c-1.668-1.852-3.975-2.781-6.914-2.781
		c-2.697,0-4.878,0.706-6.549,2.111c-1.668,1.411-2.502,3.256-2.502,5.543v19.701c0,1.985,0.434,3.435,1.309,4.352
		c0.869,0.915,2.345,1.495,4.424,1.738c0.945,0.095,1.421,0.438,1.421,1.033c0,0.562-0.371,0.83-1.116,0.797
		c-0.434-0.026-1.178-0.098-2.227-0.208c-0.649-0.081-1.935-0.122-3.854-0.122h-3.11l-3.159,0.045c-0.434,0-0.975,0.031-1.626,0.097
		c-0.805,0.095-1.377,0.16-1.716,0.188c-0.773,0.033-1.162-0.234-1.162-0.797c0-0.468,0.338-0.813,1.012-1.033
		c1.411-0.427,2.316-0.976,2.718-1.651c0.396-0.673,0.598-1.987,0.598-3.947V30.445c0-2.206-0.242-3.718-0.722-4.544
		c-0.477-0.828-1.367-1.242-2.662-1.242h-2.042c-0.309,0-0.57-0.077-0.785-0.236c-0.188-0.093-0.279-0.252-0.279-0.476
		c0-0.411,0.375-0.728,1.127-0.95c3.217-0.849,6.198-2.055,8.947-3.625c1.219-0.69,1.954-1.036,2.203-1.036
		c0.467,0,0.702,0.571,0.702,1.713V25.659z"/>
	<path fill="#CC3300" d="M41.984,31.243c-1.128,2.489-1.692,5.297-1.692,8.422c0,2.942,0.537,5.644,1.61,8.096
		c1.072,2.453,2.539,4.56,4.394,6.32c1.855,1.764,4.022,3.128,6.495,4.089c2.474,0.964,5.095,1.445,7.86,1.445
		c2.803,0,5.45-0.491,7.941-1.471c2.493-0.983,4.676-2.382,6.551-4.198c1.872-1.814,3.356-3.961,4.447-6.431
		c1.092-2.472,1.639-5.162,1.639-8.069c0-2.616-0.456-5.123-1.365-7.52c-0.369-0.972,0.108,0.068-0.393-0.812
		c-0.231-0.338-0.331-0.37-0.331-0.37c-2.037-1.827-4.407-1.837-6.727-1.023c0.53,1.131,0.849,2.045,1.18,3.315
		c0.563,2.166,0.845,4.319,0.845,6.45c0,2.201-0.282,4.406-0.845,6.607c-0.564,2.203-1.41,4.188-2.535,5.951
		c-1.127,1.766-2.535,3.208-4.223,4.326c-1.688,1.12-3.677,1.678-5.966,1.678c-2.289,0-4.298-0.506-6.022-1.521
		c-1.726-1.013-3.163-2.359-4.307-4.036c-1.144-1.678-2.005-3.619-2.586-5.821c-0.583-2.203-0.872-4.495-0.872-6.872
		c0-2.271,0.262-4.518,0.79-6.737c0.311-1.307,0.524-2.088,1.035-3.23c-2.274-1.483-4.837-0.54-6.428,0.648"/>
	<g>
		<g>
			<path fill="#CC3300" d="M8.012,28.594c0-14.365,0-16.941-0.185-19.891c-0.184-3.129-0.92-4.603-3.959-5.248
				c-0.736-0.183-2.3-0.276-3.13-0.276C0.368,3.18,0,2.998,0,2.628c0-0.554,0.462-0.736,1.473-0.736
				c4.144,0,9.944,0.274,10.405,0.274c1.014,0,8.011-0.274,10.865-0.274c5.802,0,11.971,0.55,16.852,4.05
				c2.302,1.658,6.354,6.169,6.354,12.523c0,6.814-2.856,13.626-11.141,21.27c7.55,9.668,13.81,17.862,19.152,23.573
				c4.972,5.249,8.933,6.263,11.233,6.632c1.749,0.275,3.039,0.275,3.591,0.275c0.461,0,0.83,0.276,0.83,0.554
				c0,0.552-0.554,0.733-2.211,0.733h-6.538c-5.156,0-7.457-0.458-9.852-1.75c-3.96-2.114-7.181-6.629-12.431-13.536
				c-3.867-5.063-8.194-11.233-10.036-13.628c-0.368-0.365-0.644-0.553-1.197-0.553l-11.325-0.184c-0.461,0-0.645,0.275-0.645,0.736
				V44.8c0,8.837,0,16.115,0.459,19.984c0.278,2.67,0.829,4.694,3.592,5.063c1.288,0.182,3.313,0.368,4.143,0.368
				c0.552,0,0.735,0.276,0.735,0.554c0,0.457-0.459,0.733-1.471,0.733c-5.066,0-10.866-0.276-11.326-0.276
				c-0.094,0-5.895,0.276-8.657,0.276c-1.011,0-1.474-0.182-1.474-0.733c0-0.277,0.187-0.554,0.736-0.554
				c0.832,0,1.936-0.187,2.765-0.368c1.84-0.369,2.301-2.394,2.669-5.063C8.012,60.915,8.012,53.637,8.012,44.8V28.594z
				 M15.378,36.605c0,0.459,0.184,0.828,0.645,1.105c1.38,0.828,5.615,1.475,9.669,1.475c2.209,0,4.787-0.276,6.905-1.752
				c3.223-2.211,5.616-7.181,5.616-14.181c0-11.509-6.077-18.416-15.93-18.416c-2.761,0-5.248,0.277-6.167,0.552
				c-0.463,0.186-0.737,0.554-0.737,1.105V36.605z"/>
		</g>
	</g>
	<path fill="#CC3300" d="M92.148,19.268c2.42,0,4.506,0.313,6.254,0.937l2.021,0.671c0.828,0.3,1.242,0.761,1.242,1.386v0.743
		c0,0.437,0.038,0.871,0.113,1.301L102,26.123c0.108,0.649,0.166,1.24,0.166,1.765c0,1.213-0.361,1.832-1.081,1.861
		c-0.395,0.034-0.755-0.374-1.083-1.213c-1.69-4.736-4.856-7.104-9.495-7.104c-1.844,0-3.356,0.532-4.54,1.593
		c-1.182,1.065-1.773,2.407-1.773,4.031c0,1.72,0.647,3.111,1.946,4.174c1.299,1.062,3.887,2.359,7.768,3.888
		c3.847,1.502,6.519,3.09,8.012,4.758c1.493,1.67,2.242,3.916,2.242,6.733c0,3.464-1.29,6.43-3.864,8.894
		c-2.577,2.468-5.656,3.7-9.233,3.7c-2.562,0-5.338-0.729-8.328-2.178c-0.712-0.339-1.158-0.512-1.34-0.512l-1.204-0.138
		c-0.711-0.062-1.096-0.442-1.157-1.148l-0.042-1.971l-0.126-5.87l0.097-1.374c0.131-0.826,0.487-1.254,1.068-1.285
		c0.583-0.031,0.971,0.438,1.165,1.398c0.646,3.422,1.9,6.098,3.762,8.025c1.862,1.926,4.099,2.889,6.714,2.889
		c2.247,0,4.084-0.67,5.514-2.015c1.43-1.34,2.147-3.061,2.147-5.155c0-3.188-1.749-5.562-5.245-7.125l-4.063-1.826
		c-3.696-1.592-6.311-3.24-7.851-4.94c-1.539-1.7-2.309-3.779-2.309-6.23c0-2.938,1.181-5.422,3.541-7.445
		C85.771,20.278,88.683,19.268,92.148,19.268z"/>
	<path fill="#CC3300" d="M110.742,24.925v23.255c0,3.021,0.429,4.98,1.288,5.87c1.259,1.326,3.055,1.988,5.389,1.988
		c1.872,0,3.452-0.349,4.742-1.043l2.396-1.19l0.275-0.095c0.37,0,0.555,0.165,0.555,0.498c0,0.998-1.223,2.079-3.663,3.245
		s-4.71,1.747-6.812,1.747c-7.106,0-10.658-3.678-10.658-11.042V24.925h-4.122c-0.803,0-1.203-0.241-1.203-0.719
		c0-0.433,0.402-0.99,1.212-1.675c3.633-3.068,6.415-6.136,8.343-9.207c0.84-1.361,1.435-2.046,1.782-2.046
		c0.441,0,0.661,0.4,0.661,1.197l-0.185,7.957h9.838c1.354,0,2.402-0.237,3.142-0.711c0.469-0.326,0.812-0.5,1.03-0.534
		c0.343-0.057,0.499,0.118,0.468,0.524c0,0.155-0.14,0.548-0.422,1.17l-1.076,2.678c-0.337,0.911-1.016,1.365-2.033,1.365H110.742z"
		/>
	<path fill="#CC3300" d="M140.795,37.737v-5.657c0-3.492-0.667-5.911-2.001-7.249c-1.8-1.824-4.221-2.736-7.264-2.736
		c-4.091,0-6.136,1.672-6.136,5.013c0,0.982,0.2,2.115,0.6,3.399c0.185,0.538,0.294,1.015,0.324,1.432
		c0.032,0.539-0.27,0.804-0.901,0.804c-1.411,0-2.696-0.311-3.854-0.935c-1.156-0.625-1.734-1.312-1.734-2.061
		c0-1.873,1.035-3.901,3.108-6.082c2.781-2.931,6.475-4.398,11.083-4.398c4.203,0,7.466,0.929,9.786,2.785
		c2.318,1.857,3.479,4.475,3.479,7.851v18.051c0,2.854,0.346,4.89,1.039,6.102c0.69,1.212,1.857,1.815,3.489,1.815
		c0.462,0,0.832-0.015,1.111-0.044c0.554-0.077,0.921-0.119,1.109-0.119c0.522-0.033,0.771,0.192,0.737,0.666
		c-0.03,0.545-0.763,1.097-2.195,1.654c-1.433,0.559-2.833,0.84-4.205,0.84c-2.552,0-4.858-1.606-6.914-4.824
		c-4.444,3.438-8.564,5.157-12.367,5.157c-2.885,0-5.175-0.777-6.876-2.323c-1.7-1.552-2.551-3.633-2.551-6.243
		c0-3.53,1.607-6.273,4.823-8.222C127.703,40.462,133.138,38.904,140.795,37.737z M140.795,39.567
		c-4.727,0.426-8.373,1.496-10.947,3.213c-2.574,1.719-3.861,3.916-3.861,6.588c0,2.098,0.611,3.763,1.838,4.992
		c1.228,1.232,2.885,1.847,4.976,1.847c2.544,0,4.679-0.846,6.403-2.536c1.062-1.076,1.592-2.781,1.592-5.118V39.567z"/>
	<g>
		<g>
			<path fill="#CC3300" d="M58.892,35.104c0,0-9.775-12.188-16.059-6.387C42.833,28.717,48.419,10.142,58.892,35.104z"/>
			<path fill="#CC3300" d="M62.624,35.104c0,0,9.774-12.188,16.059-6.387C78.682,28.717,73.095,10.142,62.624,35.104z"/>
			<path fill="#CC3300" d="M60.757,19.867c5.009-4.364,9.063,0,9.063,0c-4.291,3.174-8.823,14.474-8.823,14.474h-0.479
				c0,0-4.529-11.3-8.823-14.474C51.695,19.867,55.75,15.503,60.757,19.867z"/>
		</g>
		<path fill="#CC3300" d="M60.707,19.028c-2.979-8.88,0-19.028,0-19.028C64.255,10.274,60.707,19.028,60.707,19.028z"/>
	</g>
</g>
</svg>
